<mxfile host="drawio-plugin" modified="2022-09-12T13:12:52.734Z" agent="5.0 (Windows NT 6.2; Win64; x64) AppleWebKit/537.36 (KHTML, like Gecko) Chrome/89.0.4389.114 Safari/537.36" etag="XL5vOy0ijTAgWyywOTr2" version="15.5.4" type="embed"><diagram name="Page-1" id="a7904f86-f2b4-8e86-fa97-74104820619b"><mxGraphModel dx="1587" dy="373" grid="1" gridSize="10" guides="1" tooltips="1" connect="1" arrows="1" fold="1" page="1" pageScale="1" pageWidth="1100" pageHeight="850" background="none" math="0" shadow="0"><root><mxCell id="0"/><mxCell id="1" parent="0"/><mxCell id="XZ2ydOIf4kOZczTVMrgC-162" value="CAR" style="shape=table;startSize=30;container=1;collapsible=1;childLayout=tableLayout;fixedRows=1;rowLines=0;fontStyle=1;align=center;resizeLast=1;" parent="1" vertex="1"><mxGeometry x="-380" y="380" width="320" height="130" as="geometry"/></mxCell><mxCell id="XZ2ydOIf4kOZczTVMrgC-163" value="" style="shape=tableRow;horizontal=0;startSize=0;swimlaneHead=0;swimlaneBody=0;fillColor=none;collapsible=0;dropTarget=0;points=[[0,0.5],[1,0.5]];portConstraint=eastwest;top=0;left=0;right=0;bottom=1;" parent="XZ2ydOIf4kOZczTVMrgC-162" vertex="1"><mxGeometry y="30" width="320" height="30" as="geometry"/></mxCell><mxCell id="XZ2ydOIf4kOZczTVMrgC-164" value="PK" style="shape=partialRectangle;overflow=hidden;connectable=0;fillColor=none;top=0;left=0;bottom=0;right=0;fontStyle=1;" parent="XZ2ydOIf4kOZczTVMrgC-163" vertex="1"><mxGeometry width="30" height="30" as="geometry"><mxRectangle width="30" height="30" as="alternateBounds"/></mxGeometry></mxCell><mxCell id="XZ2ydOIf4kOZczTVMrgC-165" value="id int not null" style="shape=partialRectangle;overflow=hidden;connectable=0;fillColor=none;align=left;top=0;left=0;bottom=0;right=0;spacingLeft=6;fontStyle=5;" parent="XZ2ydOIf4kOZczTVMrgC-163" vertex="1"><mxGeometry x="30" width="290" height="30" as="geometry"><mxRectangle width="290" height="30" as="alternateBounds"/></mxGeometry></mxCell><mxCell id="XZ2ydOIf4kOZczTVMrgC-166" value="" style="shape=tableRow;horizontal=0;startSize=0;swimlaneHead=0;swimlaneBody=0;fillColor=none;collapsible=0;dropTarget=0;points=[[0,0.5],[1,0.5]];portConstraint=eastwest;top=0;left=0;right=0;bottom=0;" parent="XZ2ydOIf4kOZczTVMrgC-162" vertex="1"><mxGeometry y="60" width="320" height="30" as="geometry"/></mxCell><mxCell id="XZ2ydOIf4kOZczTVMrgC-167" value="" style="shape=partialRectangle;overflow=hidden;connectable=0;fillColor=none;top=0;left=0;bottom=0;right=0;" parent="XZ2ydOIf4kOZczTVMrgC-166" vertex="1"><mxGeometry width="30" height="30" as="geometry"><mxRectangle width="30" height="30" as="alternateBounds"/></mxGeometry></mxCell><mxCell id="XZ2ydOIf4kOZczTVMrgC-168" value="customerId int" style="shape=partialRectangle;overflow=hidden;connectable=0;fillColor=none;align=left;top=0;left=0;bottom=0;right=0;spacingLeft=6;fontStyle=1" parent="XZ2ydOIf4kOZczTVMrgC-166" vertex="1"><mxGeometry x="30" width="290" height="30" as="geometry"><mxRectangle width="290" height="30" as="alternateBounds"/></mxGeometry></mxCell><mxCell id="XZ2ydOIf4kOZczTVMrgC-169" value="" style="shape=tableRow;horizontal=0;startSize=0;swimlaneHead=0;swimlaneBody=0;fillColor=none;collapsible=0;dropTarget=0;points=[[0,0.5],[1,0.5]];portConstraint=eastwest;top=0;left=0;right=0;bottom=0;" parent="XZ2ydOIf4kOZczTVMrgC-162" vertex="1"><mxGeometry y="90" width="320" height="30" as="geometry"/></mxCell><mxCell id="XZ2ydOIf4kOZczTVMrgC-170" value="" style="shape=partialRectangle;overflow=hidden;connectable=0;fillColor=none;top=0;left=0;bottom=0;right=0;" parent="XZ2ydOIf4kOZczTVMrgC-169" vertex="1"><mxGeometry width="30" height="30" as="geometry"><mxRectangle width="30" height="30" as="alternateBounds"/></mxGeometry></mxCell><mxCell id="XZ2ydOIf4kOZczTVMrgC-171" value="foreign key (customerId) references CUSTOMER(id)" style="shape=partialRectangle;overflow=hidden;connectable=0;fillColor=none;align=left;top=0;left=0;bottom=0;right=0;spacingLeft=6;" parent="XZ2ydOIf4kOZczTVMrgC-169" vertex="1"><mxGeometry x="30" width="290" height="30" as="geometry"><mxRectangle width="290" height="30" as="alternateBounds"/></mxGeometry></mxCell><mxCell id="XZ2ydOIf4kOZczTVMrgC-172" value="" style="edgeStyle=orthogonalEdgeStyle;rounded=0;orthogonalLoop=1;jettySize=auto;html=1;exitX=0;exitY=0.5;exitDx=0;exitDy=0;entryX=1;entryY=0.5;entryDx=0;entryDy=0;" parent="1" source="XZ2ydOIf4kOZczTVMrgC-177" target="XZ2ydOIf4kOZczTVMrgC-163" edge="1"><mxGeometry relative="1" as="geometry"><mxPoint x="-190" y="570" as="targetPoint"/></mxGeometry></mxCell><mxCell id="XZ2ydOIf4kOZczTVMrgC-173" value="SERVICE" style="shape=table;startSize=30;container=1;collapsible=1;childLayout=tableLayout;fixedRows=1;rowLines=0;fontStyle=1;align=center;resizeLast=1;" parent="1" vertex="1"><mxGeometry x="10" y="350" width="320" height="250" as="geometry"/></mxCell><mxCell id="XZ2ydOIf4kOZczTVMrgC-174" value="" style="shape=tableRow;horizontal=0;startSize=0;swimlaneHead=0;swimlaneBody=0;fillColor=none;collapsible=0;dropTarget=0;points=[[0,0.5],[1,0.5]];portConstraint=eastwest;top=0;left=0;right=0;bottom=1;" parent="XZ2ydOIf4kOZczTVMrgC-173" vertex="1"><mxGeometry y="30" width="320" height="30" as="geometry"/></mxCell><mxCell id="XZ2ydOIf4kOZczTVMrgC-175" value="PK" style="shape=partialRectangle;overflow=hidden;connectable=0;fillColor=none;top=0;left=0;bottom=0;right=0;fontStyle=1;" parent="XZ2ydOIf4kOZczTVMrgC-174" vertex="1"><mxGeometry width="30" height="30" as="geometry"><mxRectangle width="30" height="30" as="alternateBounds"/></mxGeometry></mxCell><mxCell id="XZ2ydOIf4kOZczTVMrgC-176" value="id int not null" style="shape=partialRectangle;overflow=hidden;connectable=0;fillColor=none;align=left;top=0;left=0;bottom=0;right=0;spacingLeft=6;fontStyle=5;" parent="XZ2ydOIf4kOZczTVMrgC-174" vertex="1"><mxGeometry x="30" width="290" height="30" as="geometry"><mxRectangle width="290" height="30" as="alternateBounds"/></mxGeometry></mxCell><mxCell id="XZ2ydOIf4kOZczTVMrgC-177" value="" style="shape=tableRow;horizontal=0;startSize=0;swimlaneHead=0;swimlaneBody=0;fillColor=none;collapsible=0;dropTarget=0;points=[[0,0.5],[1,0.5]];portConstraint=eastwest;top=0;left=0;right=0;bottom=0;" parent="XZ2ydOIf4kOZczTVMrgC-173" vertex="1"><mxGeometry y="60" width="320" height="30" as="geometry"/></mxCell><mxCell id="XZ2ydOIf4kOZczTVMrgC-178" value="" style="shape=partialRectangle;overflow=hidden;connectable=0;fillColor=none;top=0;left=0;bottom=0;right=0;" parent="XZ2ydOIf4kOZczTVMrgC-177" vertex="1"><mxGeometry width="30" height="30" as="geometry"><mxRectangle width="30" height="30" as="alternateBounds"/></mxGeometry></mxCell><mxCell id="XZ2ydOIf4kOZczTVMrgC-179" value="carId int" style="shape=partialRectangle;overflow=hidden;connectable=0;fillColor=none;align=left;top=0;left=0;bottom=0;right=0;spacingLeft=6;fontStyle=1" parent="XZ2ydOIf4kOZczTVMrgC-177" vertex="1"><mxGeometry x="30" width="290" height="30" as="geometry"><mxRectangle width="290" height="30" as="alternateBounds"/></mxGeometry></mxCell><mxCell id="XZ2ydOIf4kOZczTVMrgC-183" value="" style="shape=tableRow;horizontal=0;startSize=0;swimlaneHead=0;swimlaneBody=0;fillColor=none;collapsible=0;dropTarget=0;points=[[0,0.5],[1,0.5]];portConstraint=eastwest;top=0;left=0;right=0;bottom=0;" parent="XZ2ydOIf4kOZczTVMrgC-173" vertex="1"><mxGeometry y="90" width="320" height="30" as="geometry"/></mxCell><mxCell id="XZ2ydOIf4kOZczTVMrgC-184" value="" style="shape=partialRectangle;overflow=hidden;connectable=0;fillColor=none;top=0;left=0;bottom=0;right=0;" parent="XZ2ydOIf4kOZczTVMrgC-183" vertex="1"><mxGeometry width="30" height="30" as="geometry"><mxRectangle width="30" height="30" as="alternateBounds"/></mxGeometry></mxCell><mxCell id="XZ2ydOIf4kOZczTVMrgC-185" value="carReported date" style="shape=partialRectangle;overflow=hidden;connectable=0;fillColor=none;align=left;top=0;left=0;bottom=0;right=0;spacingLeft=6;" parent="XZ2ydOIf4kOZczTVMrgC-183" vertex="1"><mxGeometry x="30" width="290" height="30" as="geometry"><mxRectangle width="290" height="30" as="alternateBounds"/></mxGeometry></mxCell><mxCell id="XZ2ydOIf4kOZczTVMrgC-186" value="" style="shape=tableRow;horizontal=0;startSize=0;swimlaneHead=0;swimlaneBody=0;fillColor=none;collapsible=0;dropTarget=0;points=[[0,0.5],[1,0.5]];portConstraint=eastwest;top=0;left=0;right=0;bottom=0;" parent="XZ2ydOIf4kOZczTVMrgC-173" vertex="1"><mxGeometry y="120" width="320" height="30" as="geometry"/></mxCell><mxCell id="XZ2ydOIf4kOZczTVMrgC-187" value="" style="shape=partialRectangle;overflow=hidden;connectable=0;fillColor=none;top=0;left=0;bottom=0;right=0;" parent="XZ2ydOIf4kOZczTVMrgC-186" vertex="1"><mxGeometry width="30" height="30" as="geometry"><mxRectangle width="30" height="30" as="alternateBounds"/></mxGeometry></mxCell><mxCell id="XZ2ydOIf4kOZczTVMrgC-188" value="carRepaired date" style="shape=partialRectangle;overflow=hidden;connectable=0;fillColor=none;align=left;top=0;left=0;bottom=0;right=0;spacingLeft=6;" parent="XZ2ydOIf4kOZczTVMrgC-186" vertex="1"><mxGeometry x="30" width="290" height="30" as="geometry"><mxRectangle width="290" height="30" as="alternateBounds"/></mxGeometry></mxCell><mxCell id="XZ2ydOIf4kOZczTVMrgC-180" value="" style="shape=tableRow;horizontal=0;startSize=0;swimlaneHead=0;swimlaneBody=0;fillColor=none;collapsible=0;dropTarget=0;points=[[0,0.5],[1,0.5]];portConstraint=eastwest;top=0;left=0;right=0;bottom=0;" parent="XZ2ydOIf4kOZczTVMrgC-173" vertex="1"><mxGeometry y="150" width="320" height="30" as="geometry"/></mxCell><mxCell id="XZ2ydOIf4kOZczTVMrgC-181" value="" style="shape=partialRectangle;overflow=hidden;connectable=0;fillColor=none;top=0;left=0;bottom=0;right=0;" parent="XZ2ydOIf4kOZczTVMrgC-180" vertex="1"><mxGeometry width="30" height="30" as="geometry"><mxRectangle width="30" height="30" as="alternateBounds"/></mxGeometry></mxCell><mxCell id="XZ2ydOIf4kOZczTVMrgC-182" value="carPaidUp date" style="shape=partialRectangle;overflow=hidden;connectable=0;fillColor=none;align=left;top=0;left=0;bottom=0;right=0;spacingLeft=6;" parent="XZ2ydOIf4kOZczTVMrgC-180" vertex="1"><mxGeometry x="30" width="290" height="30" as="geometry"><mxRectangle width="290" height="30" as="alternateBounds"/></mxGeometry></mxCell><mxCell id="XZ2ydOIf4kOZczTVMrgC-189" value="" style="shape=tableRow;horizontal=0;startSize=0;swimlaneHead=0;swimlaneBody=0;fillColor=none;collapsible=0;dropTarget=0;points=[[0,0.5],[1,0.5]];portConstraint=eastwest;top=0;left=0;right=0;bottom=0;" parent="XZ2ydOIf4kOZczTVMrgC-173" vertex="1"><mxGeometry y="180" width="320" height="30" as="geometry"/></mxCell><mxCell id="XZ2ydOIf4kOZczTVMrgC-190" value="" style="shape=partialRectangle;overflow=hidden;connectable=0;fillColor=none;top=0;left=0;bottom=0;right=0;" parent="XZ2ydOIf4kOZczTVMrgC-189" vertex="1"><mxGeometry width="30" height="30" as="geometry"><mxRectangle width="30" height="30" as="alternateBounds"/></mxGeometry></mxCell><mxCell id="XZ2ydOIf4kOZczTVMrgC-191" value="carReclaimed date" style="shape=partialRectangle;overflow=hidden;connectable=0;fillColor=none;align=left;top=0;left=0;bottom=0;right=0;spacingLeft=6;" parent="XZ2ydOIf4kOZczTVMrgC-189" vertex="1"><mxGeometry x="30" width="290" height="30" as="geometry"><mxRectangle width="290" height="30" as="alternateBounds"/></mxGeometry></mxCell><mxCell id="4" value="" style="shape=tableRow;horizontal=0;startSize=0;swimlaneHead=0;swimlaneBody=0;fillColor=none;collapsible=0;dropTarget=0;points=[[0,0.5],[1,0.5]];portConstraint=eastwest;top=0;left=0;right=0;bottom=0;" vertex="1" parent="XZ2ydOIf4kOZczTVMrgC-173"><mxGeometry y="210" width="320" height="30" as="geometry"/></mxCell><mxCell id="5" value="" style="shape=partialRectangle;overflow=hidden;connectable=0;fillColor=none;top=0;left=0;bottom=0;right=0;" vertex="1" parent="4"><mxGeometry width="30" height="30" as="geometry"><mxRectangle width="30" height="30" as="alternateBounds"/></mxGeometry></mxCell><mxCell id="6" value="foreign key (carId) references CAR(id)" style="shape=partialRectangle;overflow=hidden;connectable=0;fillColor=none;align=left;top=0;left=0;bottom=0;right=0;spacingLeft=6;" vertex="1" parent="4"><mxGeometry x="30" width="290" height="30" as="geometry"><mxRectangle width="290" height="30" as="alternateBounds"/></mxGeometry></mxCell><mxCell id="XZ2ydOIf4kOZczTVMrgC-192" value="PART" style="shape=table;startSize=30;container=1;collapsible=1;childLayout=tableLayout;fixedRows=1;rowLines=0;fontStyle=1;align=center;resizeLast=1;" parent="1" vertex="1"><mxGeometry x="-600" y="620" width="160" height="130" as="geometry"/></mxCell><mxCell id="XZ2ydOIf4kOZczTVMrgC-193" value="" style="shape=tableRow;horizontal=0;startSize=0;swimlaneHead=0;swimlaneBody=0;fillColor=none;collapsible=0;dropTarget=0;points=[[0,0.5],[1,0.5]];portConstraint=eastwest;top=0;left=0;right=0;bottom=1;" parent="XZ2ydOIf4kOZczTVMrgC-192" vertex="1"><mxGeometry y="30" width="160" height="30" as="geometry"/></mxCell><mxCell id="XZ2ydOIf4kOZczTVMrgC-194" value="PK" style="shape=partialRectangle;overflow=hidden;connectable=0;fillColor=none;top=0;left=0;bottom=0;right=0;fontStyle=1;" parent="XZ2ydOIf4kOZczTVMrgC-193" vertex="1"><mxGeometry width="30" height="30" as="geometry"><mxRectangle width="30" height="30" as="alternateBounds"/></mxGeometry></mxCell><mxCell id="XZ2ydOIf4kOZczTVMrgC-195" value="id int not null" style="shape=partialRectangle;overflow=hidden;connectable=0;fillColor=none;align=left;top=0;left=0;bottom=0;right=0;spacingLeft=6;fontStyle=5;" parent="XZ2ydOIf4kOZczTVMrgC-193" vertex="1"><mxGeometry x="30" width="130" height="30" as="geometry"><mxRectangle width="130" height="30" as="alternateBounds"/></mxGeometry></mxCell><mxCell id="XZ2ydOIf4kOZczTVMrgC-196" value="" style="shape=tableRow;horizontal=0;startSize=0;swimlaneHead=0;swimlaneBody=0;fillColor=none;collapsible=0;dropTarget=0;points=[[0,0.5],[1,0.5]];portConstraint=eastwest;top=0;left=0;right=0;bottom=0;" parent="XZ2ydOIf4kOZczTVMrgC-192" vertex="1"><mxGeometry y="60" width="160" height="30" as="geometry"/></mxCell><mxCell id="XZ2ydOIf4kOZczTVMrgC-197" value="" style="shape=partialRectangle;overflow=hidden;connectable=0;fillColor=none;top=0;left=0;bottom=0;right=0;" parent="XZ2ydOIf4kOZczTVMrgC-196" vertex="1"><mxGeometry width="30" height="30" as="geometry"><mxRectangle width="30" height="30" as="alternateBounds"/></mxGeometry></mxCell><mxCell id="XZ2ydOIf4kOZczTVMrgC-198" value="name varchar(255)" style="shape=partialRectangle;overflow=hidden;connectable=0;fillColor=none;align=left;top=0;left=0;bottom=0;right=0;spacingLeft=6;" parent="XZ2ydOIf4kOZczTVMrgC-196" vertex="1"><mxGeometry x="30" width="130" height="30" as="geometry"><mxRectangle width="130" height="30" as="alternateBounds"/></mxGeometry></mxCell><mxCell id="XZ2ydOIf4kOZczTVMrgC-199" value="" style="shape=tableRow;horizontal=0;startSize=0;swimlaneHead=0;swimlaneBody=0;fillColor=none;collapsible=0;dropTarget=0;points=[[0,0.5],[1,0.5]];portConstraint=eastwest;top=0;left=0;right=0;bottom=0;" parent="XZ2ydOIf4kOZczTVMrgC-192" vertex="1"><mxGeometry y="90" width="160" height="30" as="geometry"/></mxCell><mxCell id="XZ2ydOIf4kOZczTVMrgC-200" value="" style="shape=partialRectangle;overflow=hidden;connectable=0;fillColor=none;top=0;left=0;bottom=0;right=0;" parent="XZ2ydOIf4kOZczTVMrgC-199" vertex="1"><mxGeometry width="30" height="30" as="geometry"><mxRectangle width="30" height="30" as="alternateBounds"/></mxGeometry></mxCell><mxCell id="XZ2ydOIf4kOZczTVMrgC-201" value="price double" style="shape=partialRectangle;overflow=hidden;connectable=0;fillColor=none;align=left;top=0;left=0;bottom=0;right=0;spacingLeft=6;" parent="XZ2ydOIf4kOZczTVMrgC-199" vertex="1"><mxGeometry x="30" width="130" height="30" as="geometry"><mxRectangle width="130" height="30" as="alternateBounds"/></mxGeometry></mxCell><mxCell id="XZ2ydOIf4kOZczTVMrgC-202" value="WORKER" style="shape=table;startSize=30;container=1;collapsible=1;childLayout=tableLayout;fixedRows=1;rowLines=0;fontStyle=1;align=center;resizeLast=1;" parent="1" vertex="1"><mxGeometry x="-10" y="110" width="340" height="150" as="geometry"/></mxCell><mxCell id="XZ2ydOIf4kOZczTVMrgC-203" value="" style="shape=tableRow;horizontal=0;startSize=0;swimlaneHead=0;swimlaneBody=0;fillColor=none;collapsible=0;dropTarget=0;points=[[0,0.5],[1,0.5]];portConstraint=eastwest;top=0;left=0;right=0;bottom=1;" parent="XZ2ydOIf4kOZczTVMrgC-202" vertex="1"><mxGeometry y="30" width="340" height="30" as="geometry"/></mxCell><mxCell id="XZ2ydOIf4kOZczTVMrgC-204" value="PK" style="shape=partialRectangle;overflow=hidden;connectable=0;fillColor=none;top=0;left=0;bottom=0;right=0;fontStyle=1;" parent="XZ2ydOIf4kOZczTVMrgC-203" vertex="1"><mxGeometry width="30" height="30" as="geometry"><mxRectangle width="30" height="30" as="alternateBounds"/></mxGeometry></mxCell><mxCell id="XZ2ydOIf4kOZczTVMrgC-205" value="id int not null" style="shape=partialRectangle;overflow=hidden;connectable=0;fillColor=none;align=left;top=0;left=0;bottom=0;right=0;spacingLeft=6;fontStyle=5;" parent="XZ2ydOIf4kOZczTVMrgC-203" vertex="1"><mxGeometry x="30" width="310" height="30" as="geometry"><mxRectangle width="310" height="30" as="alternateBounds"/></mxGeometry></mxCell><mxCell id="XZ2ydOIf4kOZczTVMrgC-206" value="" style="shape=tableRow;horizontal=0;startSize=0;swimlaneHead=0;swimlaneBody=0;fillColor=none;collapsible=0;dropTarget=0;points=[[0,0.5],[1,0.5]];portConstraint=eastwest;top=0;left=0;right=0;bottom=0;" parent="XZ2ydOIf4kOZczTVMrgC-202" vertex="1"><mxGeometry y="60" width="340" height="30" as="geometry"/></mxCell><mxCell id="XZ2ydOIf4kOZczTVMrgC-207" value="" style="shape=partialRectangle;overflow=hidden;connectable=0;fillColor=none;top=0;left=0;bottom=0;right=0;" parent="XZ2ydOIf4kOZczTVMrgC-206" vertex="1"><mxGeometry width="30" height="30" as="geometry"><mxRectangle width="30" height="30" as="alternateBounds"/></mxGeometry></mxCell><mxCell id="XZ2ydOIf4kOZczTVMrgC-208" value="specId int" style="shape=partialRectangle;overflow=hidden;connectable=0;fillColor=none;align=left;top=0;left=0;bottom=0;right=0;spacingLeft=6;fontStyle=1" parent="XZ2ydOIf4kOZczTVMrgC-206" vertex="1"><mxGeometry x="30" width="310" height="30" as="geometry"><mxRectangle width="310" height="30" as="alternateBounds"/></mxGeometry></mxCell><mxCell id="XZ2ydOIf4kOZczTVMrgC-209" value="" style="shape=tableRow;horizontal=0;startSize=0;swimlaneHead=0;swimlaneBody=0;fillColor=none;collapsible=0;dropTarget=0;points=[[0,0.5],[1,0.5]];portConstraint=eastwest;top=0;left=0;right=0;bottom=0;" parent="XZ2ydOIf4kOZczTVMrgC-202" vertex="1"><mxGeometry y="90" width="340" height="30" as="geometry"/></mxCell><mxCell id="XZ2ydOIf4kOZczTVMrgC-210" value="" style="shape=partialRectangle;overflow=hidden;connectable=0;fillColor=none;top=0;left=0;bottom=0;right=0;" parent="XZ2ydOIf4kOZczTVMrgC-209" vertex="1"><mxGeometry width="30" height="30" as="geometry"><mxRectangle width="30" height="30" as="alternateBounds"/></mxGeometry></mxCell><mxCell id="XZ2ydOIf4kOZczTVMrgC-211" value="name varchar(255)" style="shape=partialRectangle;overflow=hidden;connectable=0;fillColor=none;align=left;top=0;left=0;bottom=0;right=0;spacingLeft=6;" parent="XZ2ydOIf4kOZczTVMrgC-209" vertex="1"><mxGeometry x="30" width="310" height="30" as="geometry"><mxRectangle width="310" height="30" as="alternateBounds"/></mxGeometry></mxCell><mxCell id="XZ2ydOIf4kOZczTVMrgC-212" value="" style="shape=tableRow;horizontal=0;startSize=0;swimlaneHead=0;swimlaneBody=0;fillColor=none;collapsible=0;dropTarget=0;points=[[0,0.5],[1,0.5]];portConstraint=eastwest;top=0;left=0;right=0;bottom=0;" parent="XZ2ydOIf4kOZczTVMrgC-202" vertex="1"><mxGeometry y="120" width="340" height="30" as="geometry"/></mxCell><mxCell id="XZ2ydOIf4kOZczTVMrgC-213" value="" style="shape=partialRectangle;overflow=hidden;connectable=0;fillColor=none;top=0;left=0;bottom=0;right=0;" parent="XZ2ydOIf4kOZczTVMrgC-212" vertex="1"><mxGeometry width="30" height="30" as="geometry"><mxRectangle width="30" height="30" as="alternateBounds"/></mxGeometry></mxCell><mxCell id="XZ2ydOIf4kOZczTVMrgC-214" value="foreign key (specId) references SPECIALISATION(id)" style="shape=partialRectangle;overflow=hidden;connectable=0;fillColor=none;align=left;top=0;left=0;bottom=0;right=0;spacingLeft=6;" parent="XZ2ydOIf4kOZczTVMrgC-212" vertex="1"><mxGeometry x="30" width="310" height="30" as="geometry"><mxRectangle width="310" height="30" as="alternateBounds"/></mxGeometry></mxCell><mxCell id="XZ2ydOIf4kOZczTVMrgC-215" value="SERVICE_WORKER" style="shape=table;startSize=30;container=1;collapsible=1;childLayout=tableLayout;fixedRows=1;rowLines=0;fontStyle=1;align=center;resizeLast=1;" parent="1" vertex="1"><mxGeometry x="450" y="210" width="310" height="190" as="geometry"/></mxCell><mxCell id="XZ2ydOIf4kOZczTVMrgC-216" value="" style="shape=tableRow;horizontal=0;startSize=0;swimlaneHead=0;swimlaneBody=0;fillColor=none;collapsible=0;dropTarget=0;points=[[0,0.5],[1,0.5]];portConstraint=eastwest;top=0;left=0;right=0;bottom=0;" parent="XZ2ydOIf4kOZczTVMrgC-215" vertex="1"><mxGeometry y="30" width="310" height="30" as="geometry"/></mxCell><mxCell id="XZ2ydOIf4kOZczTVMrgC-217" value="" style="shape=partialRectangle;overflow=hidden;connectable=0;fillColor=none;top=0;left=0;bottom=0;right=0;" parent="XZ2ydOIf4kOZczTVMrgC-216" vertex="1"><mxGeometry width="30" height="30" as="geometry"><mxRectangle width="30" height="30" as="alternateBounds"/></mxGeometry></mxCell><mxCell id="XZ2ydOIf4kOZczTVMrgC-218" value="workerId int" style="shape=partialRectangle;overflow=hidden;connectable=0;fillColor=none;align=left;top=0;left=0;bottom=0;right=0;spacingLeft=6;fontStyle=1" parent="XZ2ydOIf4kOZczTVMrgC-216" vertex="1"><mxGeometry x="30" width="280" height="30" as="geometry"><mxRectangle width="280" height="30" as="alternateBounds"/></mxGeometry></mxCell><mxCell id="XZ2ydOIf4kOZczTVMrgC-219" value="" style="shape=tableRow;horizontal=0;startSize=0;swimlaneHead=0;swimlaneBody=0;fillColor=none;collapsible=0;dropTarget=0;points=[[0,0.5],[1,0.5]];portConstraint=eastwest;top=0;left=0;right=0;bottom=0;" parent="XZ2ydOIf4kOZczTVMrgC-215" vertex="1"><mxGeometry y="60" width="310" height="30" as="geometry"/></mxCell><mxCell id="XZ2ydOIf4kOZczTVMrgC-220" value="" style="shape=partialRectangle;overflow=hidden;connectable=0;fillColor=none;top=0;left=0;bottom=0;right=0;" parent="XZ2ydOIf4kOZczTVMrgC-219" vertex="1"><mxGeometry width="30" height="30" as="geometry"><mxRectangle width="30" height="30" as="alternateBounds"/></mxGeometry></mxCell><mxCell id="XZ2ydOIf4kOZczTVMrgC-221" value="serviceId int" style="shape=partialRectangle;overflow=hidden;connectable=0;fillColor=none;align=left;top=0;left=0;bottom=0;right=0;spacingLeft=6;fontStyle=1" parent="XZ2ydOIf4kOZczTVMrgC-219" vertex="1"><mxGeometry x="30" width="280" height="30" as="geometry"><mxRectangle width="280" height="30" as="alternateBounds"/></mxGeometry></mxCell><mxCell id="XZ2ydOIf4kOZczTVMrgC-222" value="" style="shape=tableRow;horizontal=0;startSize=0;swimlaneHead=0;swimlaneBody=0;fillColor=none;collapsible=0;dropTarget=0;points=[[0,0.5],[1,0.5]];portConstraint=eastwest;top=0;left=0;right=0;bottom=0;" parent="XZ2ydOIf4kOZczTVMrgC-215" vertex="1"><mxGeometry y="90" width="310" height="30" as="geometry"/></mxCell><mxCell id="XZ2ydOIf4kOZczTVMrgC-223" value="" style="shape=partialRectangle;overflow=hidden;connectable=0;fillColor=none;top=0;left=0;bottom=0;right=0;" parent="XZ2ydOIf4kOZczTVMrgC-222" vertex="1"><mxGeometry width="30" height="30" as="geometry"><mxRectangle width="30" height="30" as="alternateBounds"/></mxGeometry></mxCell><mxCell id="XZ2ydOIf4kOZczTVMrgC-224" value="hoursSpent int" style="shape=partialRectangle;overflow=hidden;connectable=0;fillColor=none;align=left;top=0;left=0;bottom=0;right=0;spacingLeft=6;" parent="XZ2ydOIf4kOZczTVMrgC-222" vertex="1"><mxGeometry x="30" width="280" height="30" as="geometry"><mxRectangle width="280" height="30" as="alternateBounds"/></mxGeometry></mxCell><mxCell id="XZ2ydOIf4kOZczTVMrgC-225" value="" style="shape=tableRow;horizontal=0;startSize=0;swimlaneHead=0;swimlaneBody=0;fillColor=none;collapsible=0;dropTarget=0;points=[[0,0.5],[1,0.5]];portConstraint=eastwest;top=0;left=0;right=0;bottom=0;" parent="XZ2ydOIf4kOZczTVMrgC-215" vertex="1"><mxGeometry y="120" width="310" height="30" as="geometry"/></mxCell><mxCell id="XZ2ydOIf4kOZczTVMrgC-226" value="" style="shape=partialRectangle;overflow=hidden;connectable=0;fillColor=none;top=0;left=0;bottom=0;right=0;" parent="XZ2ydOIf4kOZczTVMrgC-225" vertex="1"><mxGeometry width="30" height="30" as="geometry"><mxRectangle width="30" height="30" as="alternateBounds"/></mxGeometry></mxCell><mxCell id="XZ2ydOIf4kOZczTVMrgC-227" value="foreign key (serviceId) references SERVICE(id)" style="shape=partialRectangle;overflow=hidden;connectable=0;fillColor=none;align=left;top=0;left=0;bottom=0;right=0;spacingLeft=6;" parent="XZ2ydOIf4kOZczTVMrgC-225" vertex="1"><mxGeometry x="30" width="280" height="30" as="geometry"><mxRectangle width="280" height="30" as="alternateBounds"/></mxGeometry></mxCell><mxCell id="XZ2ydOIf4kOZczTVMrgC-228" value="" style="shape=tableRow;horizontal=0;startSize=0;swimlaneHead=0;swimlaneBody=0;fillColor=none;collapsible=0;dropTarget=0;points=[[0,0.5],[1,0.5]];portConstraint=eastwest;top=0;left=0;right=0;bottom=0;" parent="XZ2ydOIf4kOZczTVMrgC-215" vertex="1"><mxGeometry y="150" width="310" height="30" as="geometry"/></mxCell><mxCell id="XZ2ydOIf4kOZczTVMrgC-229" value="" style="shape=partialRectangle;overflow=hidden;connectable=0;fillColor=none;top=0;left=0;bottom=0;right=0;" parent="XZ2ydOIf4kOZczTVMrgC-228" vertex="1"><mxGeometry width="30" height="30" as="geometry"><mxRectangle width="30" height="30" as="alternateBounds"/></mxGeometry></mxCell><mxCell id="XZ2ydOIf4kOZczTVMrgC-230" value="foreign key (workerId) references WORKER(id)" style="shape=partialRectangle;overflow=hidden;connectable=0;fillColor=none;align=left;top=0;left=0;bottom=0;right=0;spacingLeft=6;" parent="XZ2ydOIf4kOZczTVMrgC-228" vertex="1"><mxGeometry x="30" width="280" height="30" as="geometry"><mxRectangle width="280" height="30" as="alternateBounds"/></mxGeometry></mxCell><mxCell id="XZ2ydOIf4kOZczTVMrgC-231" value="SERVICE_PART" style="shape=table;startSize=30;container=1;collapsible=1;childLayout=tableLayout;fixedRows=1;rowLines=0;fontStyle=1;align=center;resizeLast=1;" parent="1" vertex="1"><mxGeometry x="450" y="460" width="310" height="190" as="geometry"><mxRectangle x="380" y="440" width="130" height="30" as="alternateBounds"/></mxGeometry></mxCell><mxCell id="XZ2ydOIf4kOZczTVMrgC-232" value="" style="shape=tableRow;horizontal=0;startSize=0;swimlaneHead=0;swimlaneBody=0;fillColor=none;collapsible=0;dropTarget=0;points=[[0,0.5],[1,0.5]];portConstraint=eastwest;top=0;left=0;right=0;bottom=0;" parent="XZ2ydOIf4kOZczTVMrgC-231" vertex="1"><mxGeometry y="30" width="310" height="30" as="geometry"/></mxCell><mxCell id="XZ2ydOIf4kOZczTVMrgC-233" value="" style="shape=partialRectangle;overflow=hidden;connectable=0;fillColor=none;top=0;left=0;bottom=0;right=0;" parent="XZ2ydOIf4kOZczTVMrgC-232" vertex="1"><mxGeometry width="30" height="30" as="geometry"><mxRectangle width="30" height="30" as="alternateBounds"/></mxGeometry></mxCell><mxCell id="XZ2ydOIf4kOZczTVMrgC-234" value="serviceId int" style="shape=partialRectangle;overflow=hidden;connectable=0;fillColor=none;align=left;top=0;left=0;bottom=0;right=0;spacingLeft=6;fontStyle=1" parent="XZ2ydOIf4kOZczTVMrgC-232" vertex="1"><mxGeometry x="30" width="280" height="30" as="geometry"><mxRectangle width="280" height="30" as="alternateBounds"/></mxGeometry></mxCell><mxCell id="XZ2ydOIf4kOZczTVMrgC-235" value="" style="shape=tableRow;horizontal=0;startSize=0;swimlaneHead=0;swimlaneBody=0;fillColor=none;collapsible=0;dropTarget=0;points=[[0,0.5],[1,0.5]];portConstraint=eastwest;top=0;left=0;right=0;bottom=0;" parent="XZ2ydOIf4kOZczTVMrgC-231" vertex="1"><mxGeometry y="60" width="310" height="30" as="geometry"/></mxCell><mxCell id="XZ2ydOIf4kOZczTVMrgC-236" value="" style="shape=partialRectangle;overflow=hidden;connectable=0;fillColor=none;top=0;left=0;bottom=0;right=0;" parent="XZ2ydOIf4kOZczTVMrgC-235" vertex="1"><mxGeometry width="30" height="30" as="geometry"><mxRectangle width="30" height="30" as="alternateBounds"/></mxGeometry></mxCell><mxCell id="XZ2ydOIf4kOZczTVMrgC-237" value="partId int" style="shape=partialRectangle;overflow=hidden;connectable=0;fillColor=none;align=left;top=0;left=0;bottom=0;right=0;spacingLeft=6;fontStyle=1" parent="XZ2ydOIf4kOZczTVMrgC-235" vertex="1"><mxGeometry x="30" width="280" height="30" as="geometry"><mxRectangle width="280" height="30" as="alternateBounds"/></mxGeometry></mxCell><mxCell id="XZ2ydOIf4kOZczTVMrgC-238" value="" style="shape=tableRow;horizontal=0;startSize=0;swimlaneHead=0;swimlaneBody=0;fillColor=none;collapsible=0;dropTarget=0;points=[[0,0.5],[1,0.5]];portConstraint=eastwest;top=0;left=0;right=0;bottom=0;" parent="XZ2ydOIf4kOZczTVMrgC-231" vertex="1"><mxGeometry y="90" width="310" height="30" as="geometry"/></mxCell><mxCell id="XZ2ydOIf4kOZczTVMrgC-239" value="" style="shape=partialRectangle;overflow=hidden;connectable=0;fillColor=none;top=0;left=0;bottom=0;right=0;" parent="XZ2ydOIf4kOZczTVMrgC-238" vertex="1"><mxGeometry width="30" height="30" as="geometry"><mxRectangle width="30" height="30" as="alternateBounds"/></mxGeometry></mxCell><mxCell id="XZ2ydOIf4kOZczTVMrgC-240" value="amount int" style="shape=partialRectangle;overflow=hidden;connectable=0;fillColor=none;align=left;top=0;left=0;bottom=0;right=0;spacingLeft=6;" parent="XZ2ydOIf4kOZczTVMrgC-238" vertex="1"><mxGeometry x="30" width="280" height="30" as="geometry"><mxRectangle width="280" height="30" as="alternateBounds"/></mxGeometry></mxCell><mxCell id="XZ2ydOIf4kOZczTVMrgC-241" value="" style="shape=tableRow;horizontal=0;startSize=0;swimlaneHead=0;swimlaneBody=0;fillColor=none;collapsible=0;dropTarget=0;points=[[0,0.5],[1,0.5]];portConstraint=eastwest;top=0;left=0;right=0;bottom=0;" parent="XZ2ydOIf4kOZczTVMrgC-231" vertex="1"><mxGeometry y="120" width="310" height="30" as="geometry"/></mxCell><mxCell id="XZ2ydOIf4kOZczTVMrgC-242" value="" style="shape=partialRectangle;overflow=hidden;connectable=0;fillColor=none;top=0;left=0;bottom=0;right=0;" parent="XZ2ydOIf4kOZczTVMrgC-241" vertex="1"><mxGeometry width="30" height="30" as="geometry"><mxRectangle width="30" height="30" as="alternateBounds"/></mxGeometry></mxCell><mxCell id="XZ2ydOIf4kOZczTVMrgC-243" value="foreign key (serviceId) references SERVICE(id)" style="shape=partialRectangle;overflow=hidden;connectable=0;fillColor=none;align=left;top=0;left=0;bottom=0;right=0;spacingLeft=6;" parent="XZ2ydOIf4kOZczTVMrgC-241" vertex="1"><mxGeometry x="30" width="280" height="30" as="geometry"><mxRectangle width="280" height="30" as="alternateBounds"/></mxGeometry></mxCell><mxCell id="XZ2ydOIf4kOZczTVMrgC-244" value="" style="shape=tableRow;horizontal=0;startSize=0;swimlaneHead=0;swimlaneBody=0;fillColor=none;collapsible=0;dropTarget=0;points=[[0,0.5],[1,0.5]];portConstraint=eastwest;top=0;left=0;right=0;bottom=0;" parent="XZ2ydOIf4kOZczTVMrgC-231" vertex="1"><mxGeometry y="150" width="310" height="30" as="geometry"/></mxCell><mxCell id="XZ2ydOIf4kOZczTVMrgC-245" value="" style="shape=partialRectangle;overflow=hidden;connectable=0;fillColor=none;top=0;left=0;bottom=0;right=0;" parent="XZ2ydOIf4kOZczTVMrgC-244" vertex="1"><mxGeometry width="30" height="30" as="geometry"><mxRectangle width="30" height="30" as="alternateBounds"/></mxGeometry></mxCell><mxCell id="XZ2ydOIf4kOZczTVMrgC-246" value="foreign key (partId) references PART(id)" style="shape=partialRectangle;overflow=hidden;connectable=0;fillColor=none;align=left;top=0;left=0;bottom=0;right=0;spacingLeft=6;" parent="XZ2ydOIf4kOZczTVMrgC-244" vertex="1"><mxGeometry x="30" width="280" height="30" as="geometry"><mxRectangle width="280" height="30" as="alternateBounds"/></mxGeometry></mxCell><mxCell id="XZ2ydOIf4kOZczTVMrgC-247" value="" style="edgeStyle=orthogonalEdgeStyle;rounded=0;orthogonalLoop=1;jettySize=auto;html=1;exitX=0;exitY=0.5;exitDx=0;exitDy=0;entryX=1;entryY=0.5;entryDx=0;entryDy=0;" parent="1" source="XZ2ydOIf4kOZczTVMrgC-166" target="XZ2ydOIf4kOZczTVMrgC-253" edge="1"><mxGeometry relative="1" as="geometry"><mxPoint x="300.05999999999955" y="110" as="sourcePoint"/><mxPoint x="-400" y="670" as="targetPoint"/><Array as="points"/></mxGeometry></mxCell><mxCell id="XZ2ydOIf4kOZczTVMrgC-248" value="" style="edgeStyle=orthogonalEdgeStyle;rounded=0;orthogonalLoop=1;jettySize=auto;html=1;entryX=1;entryY=0.5;entryDx=0;entryDy=0;" parent="1" source="XZ2ydOIf4kOZczTVMrgC-219" target="XZ2ydOIf4kOZczTVMrgC-174" edge="1"><mxGeometry relative="1" as="geometry"><mxPoint x="339.99999999999955" y="125" as="sourcePoint"/><mxPoint x="99.99999999999955" y="225" as="targetPoint"/></mxGeometry></mxCell><mxCell id="XZ2ydOIf4kOZczTVMrgC-249" value="" style="edgeStyle=orthogonalEdgeStyle;rounded=0;orthogonalLoop=1;jettySize=auto;html=1;exitX=0;exitY=0.5;exitDx=0;exitDy=0;entryX=1;entryY=0.5;entryDx=0;entryDy=0;" parent="1" source="XZ2ydOIf4kOZczTVMrgC-235" target="XZ2ydOIf4kOZczTVMrgC-193" edge="1"><mxGeometry relative="1" as="geometry"><mxPoint x="450.05999999999955" y="720" as="sourcePoint"/><mxPoint x="310" y="725" as="targetPoint"/><Array as="points"><mxPoint x="390" y="545"/><mxPoint x="390" y="665"/></Array></mxGeometry></mxCell><mxCell id="XZ2ydOIf4kOZczTVMrgC-250" value="" style="edgeStyle=orthogonalEdgeStyle;rounded=0;orthogonalLoop=1;jettySize=auto;html=1;" parent="1" source="XZ2ydOIf4kOZczTVMrgC-232" target="XZ2ydOIf4kOZczTVMrgC-174" edge="1"><mxGeometry relative="1" as="geometry"><mxPoint x="69.99999999999955" y="405" as="sourcePoint"/><mxPoint x="-170.00000000000045" y="505" as="targetPoint"/></mxGeometry></mxCell><mxCell id="XZ2ydOIf4kOZczTVMrgC-251" value="" style="edgeStyle=orthogonalEdgeStyle;rounded=0;orthogonalLoop=1;jettySize=auto;html=1;exitX=0;exitY=0.5;exitDx=0;exitDy=0;" parent="1" source="XZ2ydOIf4kOZczTVMrgC-216" target="XZ2ydOIf4kOZczTVMrgC-203" edge="1"><mxGeometry relative="1" as="geometry"><mxPoint x="760.0599999999995" y="90" as="sourcePoint"/><mxPoint x="520.0599999999995" y="190" as="targetPoint"/><Array as="points"><mxPoint x="390" y="255"/><mxPoint x="390" y="155"/></Array></mxGeometry></mxCell><mxCell id="XZ2ydOIf4kOZczTVMrgC-252" value="CUSTOMER" style="shape=table;startSize=30;container=1;collapsible=1;childLayout=tableLayout;fixedRows=1;rowLines=0;fontStyle=1;align=center;resizeLast=1;" parent="1" vertex="1"><mxGeometry x="-610" y="410" width="170" height="100" as="geometry"/></mxCell><mxCell id="XZ2ydOIf4kOZczTVMrgC-253" value="" style="shape=tableRow;horizontal=0;startSize=0;swimlaneHead=0;swimlaneBody=0;fillColor=none;collapsible=0;dropTarget=0;points=[[0,0.5],[1,0.5]];portConstraint=eastwest;top=0;left=0;right=0;bottom=1;" parent="XZ2ydOIf4kOZczTVMrgC-252" vertex="1"><mxGeometry y="30" width="170" height="30" as="geometry"/></mxCell><mxCell id="XZ2ydOIf4kOZczTVMrgC-254" value="PK" style="shape=partialRectangle;overflow=hidden;connectable=0;fillColor=none;top=0;left=0;bottom=0;right=0;fontStyle=1;" parent="XZ2ydOIf4kOZczTVMrgC-253" vertex="1"><mxGeometry width="30" height="30" as="geometry"><mxRectangle width="30" height="30" as="alternateBounds"/></mxGeometry></mxCell><mxCell id="XZ2ydOIf4kOZczTVMrgC-255" value="id int not null" style="shape=partialRectangle;overflow=hidden;connectable=0;fillColor=none;align=left;top=0;left=0;bottom=0;right=0;spacingLeft=6;fontStyle=5;" parent="XZ2ydOIf4kOZczTVMrgC-253" vertex="1"><mxGeometry x="30" width="140" height="30" as="geometry"><mxRectangle width="140" height="30" as="alternateBounds"/></mxGeometry></mxCell><mxCell id="XZ2ydOIf4kOZczTVMrgC-256" value="" style="shape=tableRow;horizontal=0;startSize=0;swimlaneHead=0;swimlaneBody=0;fillColor=none;collapsible=0;dropTarget=0;points=[[0,0.5],[1,0.5]];portConstraint=eastwest;top=0;left=0;right=0;bottom=0;" parent="XZ2ydOIf4kOZczTVMrgC-252" vertex="1"><mxGeometry y="60" width="170" height="30" as="geometry"/></mxCell><mxCell id="XZ2ydOIf4kOZczTVMrgC-257" value="" style="shape=partialRectangle;overflow=hidden;connectable=0;fillColor=none;top=0;left=0;bottom=0;right=0;" parent="XZ2ydOIf4kOZczTVMrgC-256" vertex="1"><mxGeometry width="30" height="30" as="geometry"><mxRectangle width="30" height="30" as="alternateBounds"/></mxGeometry></mxCell><mxCell id="XZ2ydOIf4kOZczTVMrgC-258" value="name varchar(255)" style="shape=partialRectangle;overflow=hidden;connectable=0;fillColor=none;align=left;top=0;left=0;bottom=0;right=0;spacingLeft=6;fontStyle=0" parent="XZ2ydOIf4kOZczTVMrgC-256" vertex="1"><mxGeometry x="30" width="140" height="30" as="geometry"><mxRectangle width="140" height="30" as="alternateBounds"/></mxGeometry></mxCell><mxCell id="XZ2ydOIf4kOZczTVMrgC-259" value="SPECIALISATION" style="shape=table;startSize=30;container=1;collapsible=1;childLayout=tableLayout;fixedRows=1;rowLines=0;fontStyle=1;align=center;resizeLast=1;" parent="1" vertex="1"><mxGeometry x="-650" y="140" width="210" height="130" as="geometry"/></mxCell><mxCell id="XZ2ydOIf4kOZczTVMrgC-260" value="" style="shape=tableRow;horizontal=0;startSize=0;swimlaneHead=0;swimlaneBody=0;fillColor=none;collapsible=0;dropTarget=0;points=[[0,0.5],[1,0.5]];portConstraint=eastwest;top=0;left=0;right=0;bottom=1;" parent="XZ2ydOIf4kOZczTVMrgC-259" vertex="1"><mxGeometry y="30" width="210" height="30" as="geometry"/></mxCell><mxCell id="XZ2ydOIf4kOZczTVMrgC-261" value="PK" style="shape=partialRectangle;overflow=hidden;connectable=0;fillColor=none;top=0;left=0;bottom=0;right=0;fontStyle=1;" parent="XZ2ydOIf4kOZczTVMrgC-260" vertex="1"><mxGeometry width="30" height="30" as="geometry"><mxRectangle width="30" height="30" as="alternateBounds"/></mxGeometry></mxCell><mxCell id="XZ2ydOIf4kOZczTVMrgC-262" value="id int not null" style="shape=partialRectangle;overflow=hidden;connectable=0;fillColor=none;align=left;top=0;left=0;bottom=0;right=0;spacingLeft=6;fontStyle=5;" parent="XZ2ydOIf4kOZczTVMrgC-260" vertex="1"><mxGeometry x="30" width="180" height="30" as="geometry"><mxRectangle width="180" height="30" as="alternateBounds"/></mxGeometry></mxCell><mxCell id="XZ2ydOIf4kOZczTVMrgC-263" value="" style="shape=tableRow;horizontal=0;startSize=0;swimlaneHead=0;swimlaneBody=0;fillColor=none;collapsible=0;dropTarget=0;points=[[0,0.5],[1,0.5]];portConstraint=eastwest;top=0;left=0;right=0;bottom=0;" parent="XZ2ydOIf4kOZczTVMrgC-259" vertex="1"><mxGeometry y="60" width="210" height="30" as="geometry"/></mxCell><mxCell id="XZ2ydOIf4kOZczTVMrgC-264" value="" style="shape=partialRectangle;overflow=hidden;connectable=0;fillColor=none;top=0;left=0;bottom=0;right=0;" parent="XZ2ydOIf4kOZczTVMrgC-263" vertex="1"><mxGeometry width="30" height="30" as="geometry"><mxRectangle width="30" height="30" as="alternateBounds"/></mxGeometry></mxCell><mxCell id="XZ2ydOIf4kOZczTVMrgC-265" value="name varchar(255)" style="shape=partialRectangle;overflow=hidden;connectable=0;fillColor=none;align=left;top=0;left=0;bottom=0;right=0;spacingLeft=6;" parent="XZ2ydOIf4kOZczTVMrgC-263" vertex="1"><mxGeometry x="30" width="180" height="30" as="geometry"><mxRectangle width="180" height="30" as="alternateBounds"/></mxGeometry></mxCell><mxCell id="XZ2ydOIf4kOZczTVMrgC-266" value="" style="shape=tableRow;horizontal=0;startSize=0;swimlaneHead=0;swimlaneBody=0;fillColor=none;collapsible=0;dropTarget=0;points=[[0,0.5],[1,0.5]];portConstraint=eastwest;top=0;left=0;right=0;bottom=0;" parent="XZ2ydOIf4kOZczTVMrgC-259" vertex="1"><mxGeometry y="90" width="210" height="30" as="geometry"/></mxCell><mxCell id="XZ2ydOIf4kOZczTVMrgC-267" value="" style="shape=partialRectangle;overflow=hidden;connectable=0;fillColor=none;top=0;left=0;bottom=0;right=0;" parent="XZ2ydOIf4kOZczTVMrgC-266" vertex="1"><mxGeometry width="30" height="30" as="geometry"><mxRectangle width="30" height="30" as="alternateBounds"/></mxGeometry></mxCell><mxCell id="XZ2ydOIf4kOZczTVMrgC-268" value="hourlyPay double" style="shape=partialRectangle;overflow=hidden;connectable=0;fillColor=none;align=left;top=0;left=0;bottom=0;right=0;spacingLeft=6;" parent="XZ2ydOIf4kOZczTVMrgC-266" vertex="1"><mxGeometry x="30" width="180" height="30" as="geometry"><mxRectangle width="180" height="30" as="alternateBounds"/></mxGeometry></mxCell><mxCell id="XZ2ydOIf4kOZczTVMrgC-269" value="" style="edgeStyle=orthogonalEdgeStyle;rounded=0;orthogonalLoop=1;jettySize=auto;html=1;exitX=0;exitY=0.5;exitDx=0;exitDy=0;entryX=1;entryY=0.5;entryDx=0;entryDy=0;" parent="1" source="XZ2ydOIf4kOZczTVMrgC-206" target="XZ2ydOIf4kOZczTVMrgC-260" edge="1"><mxGeometry relative="1" as="geometry"><mxPoint x="769.9999999999995" y="295" as="sourcePoint"/><mxPoint x="-40" y="40" as="targetPoint"/><Array as="points"/></mxGeometry></mxCell></root></mxGraphModel></diagram></mxfile>